<svg width="24" height="24" viewBox="0 0 24 24" xmlns="http://www.w3.org/2000/svg"><title>fitness</title><path d="M15.5 9.914L9.914 15.5l3.793 3.793a1 1 0 0 1-1.414 1.414l-9-9a1 1 0 0 1 1.414-1.414L8.5 14.086 14.086 8.5l-3.793-3.793a1 1 0 0 1 1.414-1.414l9 9a1 1 0 0 1-1.414 1.414L15.5 9.914zm2.793-5.207a1 1 0 1 1 1.414-1.414l1 1a1 1 0 1 1-1.414 1.414l-1-1zm-15 15a1 1 0 0 1 1.414-1.414l1 1a1 1 0 0 1-1.414 1.414l-1-1zm11-15a1 1 0 1 1 1.414-1.414l5 5a1 1 0 1 1-1.414 1.414l-5-5zm-11 11a1 1 0 0 1 1.414-1.414l5 5a1 1 0 1 1-1.414 1.414l-5-5z" fill="#000" fill-rule="nonzero"/></svg>